<mxfile host="app.diagrams.net" agent="Mozilla/5.0 (Windows NT 10.0; Win64; x64) AppleWebKit/537.36 (KHTML, like Gecko) Chrome/135.0.0.0 Safari/537.36" version="26.2.8" pages="2">
  <diagram name="VPC" id="CoSpjQFsRQTJTlUfrRXI">
    <mxGraphModel dx="1044" dy="527" grid="1" gridSize="10" guides="1" tooltips="1" connect="1" arrows="1" fold="1" page="1" pageScale="1" pageWidth="850" pageHeight="1100" math="0" shadow="0">
      <root>
        <mxCell id="0" />
        <mxCell id="1" parent="0" />
        <mxCell id="-P_qA9kMtlpoEuiQv5Zm-1" value="" style="rounded=0;whiteSpace=wrap;html=1;" parent="1" vertex="1">
          <mxGeometry y="60" width="790" height="400" as="geometry" />
        </mxCell>
        <mxCell id="-P_qA9kMtlpoEuiQv5Zm-2" value="VPC" style="points=[[0,0],[0.25,0],[0.5,0],[0.75,0],[1,0],[1,0.25],[1,0.5],[1,0.75],[1,1],[0.75,1],[0.5,1],[0.25,1],[0,1],[0,0.75],[0,0.5],[0,0.25]];outlineConnect=0;gradientColor=none;html=1;whiteSpace=wrap;fontSize=12;fontStyle=0;container=1;pointerEvents=0;collapsible=0;recursiveResize=0;shape=mxgraph.aws4.group;grIcon=mxgraph.aws4.group_vpc2;strokeColor=#8C4FFF;fillColor=none;verticalAlign=top;align=left;spacingLeft=30;fontColor=#AAB7B8;dashed=0;" parent="1" vertex="1">
          <mxGeometry x="180" y="70" width="570" height="380" as="geometry" />
        </mxCell>
        <mxCell id="-P_qA9kMtlpoEuiQv5Zm-6" value="Availability Zone A" style="fillColor=none;strokeColor=#147EBA;dashed=1;verticalAlign=top;fontStyle=0;fontColor=#147EBA;whiteSpace=wrap;html=1;" parent="-P_qA9kMtlpoEuiQv5Zm-2" vertex="1">
          <mxGeometry x="38" y="30" width="492" height="130" as="geometry" />
        </mxCell>
        <mxCell id="-P_qA9kMtlpoEuiQv5Zm-10" value="Public subnet" style="points=[[0,0],[0.25,0],[0.5,0],[0.75,0],[1,0],[1,0.25],[1,0.5],[1,0.75],[1,1],[0.75,1],[0.5,1],[0.25,1],[0,1],[0,0.75],[0,0.5],[0,0.25]];outlineConnect=0;gradientColor=none;html=1;whiteSpace=wrap;fontSize=12;fontStyle=0;container=1;pointerEvents=0;collapsible=0;recursiveResize=0;shape=mxgraph.aws4.group;grIcon=mxgraph.aws4.group_security_group;grStroke=0;strokeColor=#7AA116;fillColor=#F2F6E8;verticalAlign=top;align=left;spacingLeft=30;fontColor=#248814;dashed=0;" parent="-P_qA9kMtlpoEuiQv5Zm-2" vertex="1">
          <mxGeometry x="50" y="50" width="150" height="100" as="geometry" />
        </mxCell>
        <mxCell id="-P_qA9kMtlpoEuiQv5Zm-20" value="NAT Gateway" style="sketch=0;outlineConnect=0;fontColor=#232F3E;gradientColor=none;fillColor=#8C4FFF;strokeColor=none;dashed=0;verticalLabelPosition=bottom;verticalAlign=top;align=center;html=1;fontSize=12;fontStyle=0;aspect=fixed;pointerEvents=1;shape=mxgraph.aws4.nat_gateway;" parent="-P_qA9kMtlpoEuiQv5Zm-10" vertex="1">
          <mxGeometry x="51" y="30" width="48" height="48" as="geometry" />
        </mxCell>
        <mxCell id="-P_qA9kMtlpoEuiQv5Zm-12" value="Private subnet" style="points=[[0,0],[0.25,0],[0.5,0],[0.75,0],[1,0],[1,0.25],[1,0.5],[1,0.75],[1,1],[0.75,1],[0.5,1],[0.25,1],[0,1],[0,0.75],[0,0.5],[0,0.25]];outlineConnect=0;gradientColor=none;html=1;whiteSpace=wrap;fontSize=12;fontStyle=0;container=1;pointerEvents=0;collapsible=0;recursiveResize=0;shape=mxgraph.aws4.group;grIcon=mxgraph.aws4.group_security_group;grStroke=0;strokeColor=#00A4A6;fillColor=#E6F6F7;verticalAlign=top;align=left;spacingLeft=30;fontColor=#147EBA;dashed=0;" parent="-P_qA9kMtlpoEuiQv5Zm-2" vertex="1">
          <mxGeometry x="209" y="50" width="150" height="100" as="geometry" />
        </mxCell>
        <mxCell id="-P_qA9kMtlpoEuiQv5Zm-22" value="ECS" style="sketch=0;points=[[0,0,0],[0.25,0,0],[0.5,0,0],[0.75,0,0],[1,0,0],[0,1,0],[0.25,1,0],[0.5,1,0],[0.75,1,0],[1,1,0],[0,0.25,0],[0,0.5,0],[0,0.75,0],[1,0.25,0],[1,0.5,0],[1,0.75,0]];outlineConnect=0;fontColor=#232F3E;fillColor=#ED7100;strokeColor=#ffffff;dashed=0;verticalLabelPosition=bottom;verticalAlign=top;align=center;html=1;fontSize=12;fontStyle=0;aspect=fixed;shape=mxgraph.aws4.resourceIcon;resIcon=mxgraph.aws4.ecs;" parent="-P_qA9kMtlpoEuiQv5Zm-12" vertex="1">
          <mxGeometry x="17" y="30" width="38" height="38" as="geometry" />
        </mxCell>
        <mxCell id="-P_qA9kMtlpoEuiQv5Zm-23" value="EKS" style="sketch=0;points=[[0,0,0],[0.25,0,0],[0.5,0,0],[0.75,0,0],[1,0,0],[0,1,0],[0.25,1,0],[0.5,1,0],[0.75,1,0],[1,1,0],[0,0.25,0],[0,0.5,0],[0,0.75,0],[1,0.25,0],[1,0.5,0],[1,0.75,0]];outlineConnect=0;fontColor=#232F3E;fillColor=#ED7100;strokeColor=#ffffff;dashed=0;verticalLabelPosition=bottom;verticalAlign=top;align=center;html=1;fontSize=12;fontStyle=0;aspect=fixed;shape=mxgraph.aws4.resourceIcon;resIcon=mxgraph.aws4.eks;" parent="-P_qA9kMtlpoEuiQv5Zm-12" vertex="1">
          <mxGeometry x="91" y="30" width="38" height="38" as="geometry" />
        </mxCell>
        <mxCell id="-P_qA9kMtlpoEuiQv5Zm-13" value="Database subnet" style="points=[[0,0],[0.25,0],[0.5,0],[0.75,0],[1,0],[1,0.25],[1,0.5],[1,0.75],[1,1],[0.75,1],[0.5,1],[0.25,1],[0,1],[0,0.75],[0,0.5],[0,0.25]];outlineConnect=0;html=1;whiteSpace=wrap;fontSize=12;fontStyle=0;container=1;pointerEvents=0;collapsible=0;recursiveResize=0;shape=mxgraph.aws4.group;grIcon=mxgraph.aws4.group_security_group;grStroke=0;strokeColor=#d6b656;fillColor=#fff2cc;verticalAlign=top;align=left;spacingLeft=30;dashed=0;" parent="-P_qA9kMtlpoEuiQv5Zm-2" vertex="1">
          <mxGeometry x="370" y="50" width="150" height="100" as="geometry" />
        </mxCell>
        <mxCell id="-P_qA9kMtlpoEuiQv5Zm-18" value="Public Route Table" style="sketch=0;outlineConnect=0;fontColor=#232F3E;gradientColor=none;fillColor=#8C4FFF;strokeColor=none;dashed=0;verticalLabelPosition=bottom;verticalAlign=top;align=center;html=1;fontSize=12;fontStyle=0;aspect=fixed;pointerEvents=1;shape=mxgraph.aws4.route_table;" parent="-P_qA9kMtlpoEuiQv5Zm-2" vertex="1">
          <mxGeometry x="180" y="171.49000000000004" width="38" height="37.03" as="geometry" />
        </mxCell>
        <mxCell id="-P_qA9kMtlpoEuiQv5Zm-19" value="Private Route Table" style="sketch=0;outlineConnect=0;fontColor=#232F3E;gradientColor=none;fillColor=#8C4FFF;strokeColor=none;dashed=0;verticalLabelPosition=bottom;verticalAlign=top;align=center;html=1;fontSize=12;fontStyle=0;aspect=fixed;pointerEvents=1;shape=mxgraph.aws4.route_table;" parent="-P_qA9kMtlpoEuiQv5Zm-2" vertex="1">
          <mxGeometry x="530" y="165.00000000000003" width="38" height="37.03" as="geometry" />
        </mxCell>
        <mxCell id="-P_qA9kMtlpoEuiQv5Zm-27" value="" style="rounded=1;arcSize=10;dashed=1;strokeColor=#67AB9F;fillColor=none;gradientColor=none;strokeWidth=2;" parent="-P_qA9kMtlpoEuiQv5Zm-2" vertex="1">
          <mxGeometry x="50" y="40" width="150" height="320" as="geometry" />
        </mxCell>
        <mxCell id="-P_qA9kMtlpoEuiQv5Zm-28" value="" style="rounded=1;arcSize=10;dashed=1;strokeColor=#EA6B66;fillColor=none;gradientColor=none;strokeWidth=2;" parent="-P_qA9kMtlpoEuiQv5Zm-2" vertex="1">
          <mxGeometry x="210" y="30" width="340" height="340" as="geometry" />
        </mxCell>
        <mxCell id="-P_qA9kMtlpoEuiQv5Zm-33" style="edgeStyle=orthogonalEdgeStyle;rounded=0;orthogonalLoop=1;jettySize=auto;html=1;" parent="-P_qA9kMtlpoEuiQv5Zm-2" source="-P_qA9kMtlpoEuiQv5Zm-5" target="-P_qA9kMtlpoEuiQv5Zm-32" edge="1">
          <mxGeometry relative="1" as="geometry" />
        </mxCell>
        <mxCell id="-P_qA9kMtlpoEuiQv5Zm-5" value="" style="sketch=0;outlineConnect=0;fontColor=#232F3E;gradientColor=none;fillColor=#8C4FFF;strokeColor=none;dashed=0;verticalLabelPosition=bottom;verticalAlign=top;align=center;html=1;fontSize=12;fontStyle=0;aspect=fixed;pointerEvents=1;shape=mxgraph.aws4.internet_gateway;" parent="-P_qA9kMtlpoEuiQv5Zm-2" vertex="1">
          <mxGeometry x="-30" y="166" width="50" height="50" as="geometry" />
        </mxCell>
        <mxCell id="-P_qA9kMtlpoEuiQv5Zm-32" value="ALB" style="sketch=0;outlineConnect=0;fontColor=#232F3E;gradientColor=none;fillColor=#8C4FFF;strokeColor=none;dashed=0;verticalLabelPosition=bottom;verticalAlign=top;align=center;html=1;fontSize=12;fontStyle=0;aspect=fixed;pointerEvents=1;shape=mxgraph.aws4.application_load_balancer;" parent="-P_qA9kMtlpoEuiQv5Zm-2" vertex="1">
          <mxGeometry x="80" y="167" width="48" height="48" as="geometry" />
        </mxCell>
        <mxCell id="-P_qA9kMtlpoEuiQv5Zm-3" value="Users" style="sketch=0;outlineConnect=0;fontColor=#232F3E;gradientColor=none;fillColor=#232F3D;strokeColor=none;dashed=0;verticalLabelPosition=bottom;verticalAlign=top;align=center;html=1;fontSize=12;fontStyle=0;aspect=fixed;pointerEvents=1;shape=mxgraph.aws4.users;" parent="1" vertex="1">
          <mxGeometry x="10" y="90" width="58" height="58" as="geometry" />
        </mxCell>
        <mxCell id="-P_qA9kMtlpoEuiQv5Zm-4" value="Internet" style="sketch=0;outlineConnect=0;fontColor=#232F3E;gradientColor=none;fillColor=#232F3D;strokeColor=none;dashed=0;verticalLabelPosition=bottom;verticalAlign=top;align=center;html=1;fontSize=12;fontStyle=0;aspect=fixed;pointerEvents=1;shape=mxgraph.aws4.internet_alt22;" parent="1" vertex="1">
          <mxGeometry x="10" y="331" width="78" height="78" as="geometry" />
        </mxCell>
        <mxCell id="-P_qA9kMtlpoEuiQv5Zm-9" value="Availability Zone B" style="fillColor=none;strokeColor=#147EBA;dashed=1;verticalAlign=top;fontStyle=0;fontColor=#147EBA;whiteSpace=wrap;html=1;" parent="1" vertex="1">
          <mxGeometry x="218" y="300" width="492" height="130" as="geometry" />
        </mxCell>
        <mxCell id="-P_qA9kMtlpoEuiQv5Zm-15" value="Public subnet" style="points=[[0,0],[0.25,0],[0.5,0],[0.75,0],[1,0],[1,0.25],[1,0.5],[1,0.75],[1,1],[0.75,1],[0.5,1],[0.25,1],[0,1],[0,0.75],[0,0.5],[0,0.25]];outlineConnect=0;gradientColor=none;html=1;whiteSpace=wrap;fontSize=12;fontStyle=0;container=1;pointerEvents=0;collapsible=0;recursiveResize=0;shape=mxgraph.aws4.group;grIcon=mxgraph.aws4.group_security_group;grStroke=0;strokeColor=#7AA116;fillColor=#F2F6E8;verticalAlign=top;align=left;spacingLeft=30;fontColor=#248814;dashed=0;" parent="1" vertex="1">
          <mxGeometry x="230" y="320" width="150" height="100" as="geometry" />
        </mxCell>
        <mxCell id="-P_qA9kMtlpoEuiQv5Zm-21" value="NAT Gateway" style="sketch=0;outlineConnect=0;fontColor=#232F3E;gradientColor=none;fillColor=#8C4FFF;strokeColor=none;dashed=0;verticalLabelPosition=bottom;verticalAlign=top;align=center;html=1;fontSize=12;fontStyle=0;aspect=fixed;pointerEvents=1;shape=mxgraph.aws4.nat_gateway;" parent="-P_qA9kMtlpoEuiQv5Zm-15" vertex="1">
          <mxGeometry x="51" y="30" width="48" height="48" as="geometry" />
        </mxCell>
        <mxCell id="-P_qA9kMtlpoEuiQv5Zm-16" value="Private subnet" style="points=[[0,0],[0.25,0],[0.5,0],[0.75,0],[1,0],[1,0.25],[1,0.5],[1,0.75],[1,1],[0.75,1],[0.5,1],[0.25,1],[0,1],[0,0.75],[0,0.5],[0,0.25]];outlineConnect=0;gradientColor=none;html=1;whiteSpace=wrap;fontSize=12;fontStyle=0;container=1;pointerEvents=0;collapsible=0;recursiveResize=0;shape=mxgraph.aws4.group;grIcon=mxgraph.aws4.group_security_group;grStroke=0;strokeColor=#00A4A6;fillColor=#E6F6F7;verticalAlign=top;align=left;spacingLeft=30;fontColor=#147EBA;dashed=0;" parent="1" vertex="1">
          <mxGeometry x="389" y="320" width="150" height="100" as="geometry" />
        </mxCell>
        <mxCell id="-P_qA9kMtlpoEuiQv5Zm-24" value="EC2" style="sketch=0;points=[[0,0,0],[0.25,0,0],[0.5,0,0],[0.75,0,0],[1,0,0],[0,1,0],[0.25,1,0],[0.5,1,0],[0.75,1,0],[1,1,0],[0,0.25,0],[0,0.5,0],[0,0.75,0],[1,0.25,0],[1,0.5,0],[1,0.75,0]];outlineConnect=0;fontColor=#232F3E;fillColor=#ED7100;strokeColor=#ffffff;dashed=0;verticalLabelPosition=bottom;verticalAlign=top;align=center;html=1;fontSize=12;fontStyle=0;aspect=fixed;shape=mxgraph.aws4.resourceIcon;resIcon=mxgraph.aws4.ec2;" parent="-P_qA9kMtlpoEuiQv5Zm-16" vertex="1">
          <mxGeometry x="17" y="35" width="38" height="38" as="geometry" />
        </mxCell>
        <mxCell id="-P_qA9kMtlpoEuiQv5Zm-25" value="Lambda" style="sketch=0;points=[[0,0,0],[0.25,0,0],[0.5,0,0],[0.75,0,0],[1,0,0],[0,1,0],[0.25,1,0],[0.5,1,0],[0.75,1,0],[1,1,0],[0,0.25,0],[0,0.5,0],[0,0.75,0],[1,0.25,0],[1,0.5,0],[1,0.75,0]];outlineConnect=0;fontColor=#232F3E;fillColor=#ED7100;strokeColor=#ffffff;dashed=0;verticalLabelPosition=bottom;verticalAlign=top;align=center;html=1;fontSize=12;fontStyle=0;aspect=fixed;shape=mxgraph.aws4.resourceIcon;resIcon=mxgraph.aws4.lambda;" parent="-P_qA9kMtlpoEuiQv5Zm-16" vertex="1">
          <mxGeometry x="91" y="35" width="38" height="38" as="geometry" />
        </mxCell>
        <mxCell id="-P_qA9kMtlpoEuiQv5Zm-17" value="Database subnet" style="points=[[0,0],[0.25,0],[0.5,0],[0.75,0],[1,0],[1,0.25],[1,0.5],[1,0.75],[1,1],[0.75,1],[0.5,1],[0.25,1],[0,1],[0,0.75],[0,0.5],[0,0.25]];outlineConnect=0;html=1;whiteSpace=wrap;fontSize=12;fontStyle=0;container=1;pointerEvents=0;collapsible=0;recursiveResize=0;shape=mxgraph.aws4.group;grIcon=mxgraph.aws4.group_security_group;grStroke=0;strokeColor=#d6b656;fillColor=#fff2cc;verticalAlign=top;align=left;spacingLeft=30;dashed=0;" parent="1" vertex="1">
          <mxGeometry x="550" y="320" width="150" height="100" as="geometry" />
        </mxCell>
        <mxCell id="-P_qA9kMtlpoEuiQv5Zm-31" style="edgeStyle=orthogonalEdgeStyle;rounded=0;orthogonalLoop=1;jettySize=auto;html=1;" parent="1" source="-P_qA9kMtlpoEuiQv5Zm-29" target="-P_qA9kMtlpoEuiQv5Zm-5" edge="1">
          <mxGeometry relative="1" as="geometry" />
        </mxCell>
        <mxCell id="-P_qA9kMtlpoEuiQv5Zm-29" value="Route53" style="sketch=0;points=[[0,0,0],[0.25,0,0],[0.5,0,0],[0.75,0,0],[1,0,0],[0,1,0],[0.25,1,0],[0.5,1,0],[0.75,1,0],[1,1,0],[0,0.25,0],[0,0.5,0],[0,0.75,0],[1,0.25,0],[1,0.5,0],[1,0.75,0]];outlineConnect=0;fontColor=#232F3E;fillColor=#8C4FFF;strokeColor=#ffffff;dashed=0;verticalLabelPosition=bottom;verticalAlign=top;align=center;html=1;fontSize=12;fontStyle=0;aspect=fixed;shape=mxgraph.aws4.resourceIcon;resIcon=mxgraph.aws4.route_53;" parent="1" vertex="1">
          <mxGeometry x="15" y="237" width="48" height="48" as="geometry" />
        </mxCell>
        <mxCell id="-P_qA9kMtlpoEuiQv5Zm-30" style="edgeStyle=orthogonalEdgeStyle;rounded=0;orthogonalLoop=1;jettySize=auto;html=1;entryX=0.5;entryY=0;entryDx=0;entryDy=0;entryPerimeter=0;" parent="1" source="-P_qA9kMtlpoEuiQv5Zm-3" target="-P_qA9kMtlpoEuiQv5Zm-29" edge="1">
          <mxGeometry relative="1" as="geometry" />
        </mxCell>
        <mxCell id="-P_qA9kMtlpoEuiQv5Zm-34" style="edgeStyle=orthogonalEdgeStyle;rounded=0;orthogonalLoop=1;jettySize=auto;html=1;" parent="1" source="-P_qA9kMtlpoEuiQv5Zm-5" target="-P_qA9kMtlpoEuiQv5Zm-4" edge="1">
          <mxGeometry relative="1" as="geometry">
            <Array as="points">
              <mxPoint x="110" y="261" />
              <mxPoint x="110" y="370" />
            </Array>
          </mxGeometry>
        </mxCell>
      </root>
    </mxGraphModel>
  </diagram>
  <diagram id="C86FLDFiJo1HTBHV2Ywq" name="EKS-EC2">
    <mxGraphModel dx="1044" dy="527" grid="1" gridSize="10" guides="1" tooltips="1" connect="1" arrows="1" fold="1" page="1" pageScale="1" pageWidth="850" pageHeight="1100" math="0" shadow="0">
      <root>
        <mxCell id="0" />
        <mxCell id="1" parent="0" />
      </root>
    </mxGraphModel>
  </diagram>
</mxfile>
